<svg xmlns="http://www.w3.org/2000/svg" xmlns:xlink="http://www.w3.org/1999/xlink" version="1.1" x="0px" y="0px" viewBox="0 0 100 125" enable-background="new 0 0 100 100" xml:space="preserve"><g><path d="M42.626,22.867c-1.185-1.185-3.105-1.185-4.29,0s-1.185,3.105,0,4.29l22.848,22.845L38.336,72.846   c-1.185,1.185-1.185,3.105,0,4.29c0.593,0.593,1.369,0.889,2.145,0.889s1.552-0.296,2.145-0.889l24.993-24.99   c0.569-0.569,0.889-1.339,0.889-2.145c0-0.806-0.32-1.576-0.889-2.145L42.626,22.867z"/><path d="M49.997,4.999c-11.91,0-23.138,4.61-31.617,12.979C9.83,26.425,5.078,37.698,5.001,49.717s4.533,23.351,12.982,31.901   c8.52,8.63,19.891,13.382,32.014,13.382c11.916,0,23.144-4.61,31.623-12.979c8.55-8.446,13.302-19.716,13.379-31.735   c0.077-12.019-4.533-23.351-12.982-31.901C73.496,9.754,62.126,4.999,49.997,4.999z M77.354,77.702   c-7.335,7.244-17.047,11.231-27.357,11.231c-10.488,0-20.329-4.112-27.7-11.578c-7.306-7.398-11.293-17.201-11.228-27.6   s4.177-20.152,11.578-27.457c7.329-7.244,17.047-11.231,27.351-11.231c10.494,0,20.335,4.112,27.706,11.581   c7.306,7.398,11.293,17.201,11.228,27.6S84.754,70.396,77.354,77.702z"/></g><text x="0" y="115" fill="#000000" font-size="5px" font-weight="bold" font-family="'Helvetica Neue', Helvetica, Arial-Unicode, Arial, Sans-serif">Created by Marek Polakovic</text><text x="0" y="120" fill="#000000" font-size="5px" font-weight="bold" font-family="'Helvetica Neue', Helvetica, Arial-Unicode, Arial, Sans-serif">from the Noun Project</text></svg>