<svg xmlns="http://www.w3.org/2000/svg" xmlns:xlink="http://www.w3.org/1999/xlink" version="1.1" x="0px" y="0px" viewBox="0 0 100 125" enable-background="new 0 0 100 100" xml:space="preserve"><g><path d="M57.374,22.867c1.185-1.185,3.105-1.185,4.29,0s1.185,3.105,0,4.29L38.816,50.001l22.848,22.845   c1.185,1.185,1.185,3.105,0,4.29c-0.593,0.593-1.369,0.889-2.145,0.889s-1.552-0.296-2.145-0.889l-24.993-24.99   c-0.569-0.569-0.889-1.339-0.889-2.145c0-0.806,0.32-1.576,0.889-2.145L57.374,22.867z"/><path d="M17.983,18.385C9.534,26.935,4.924,38.267,5.001,50.286C5.078,62.305,9.83,73.575,18.38,82.021   c8.479,8.369,19.707,12.979,31.623,12.979c12.123,0,23.493-4.752,32.014-13.382c8.449-8.55,13.059-19.882,12.982-31.901   C94.922,37.698,90.17,26.425,81.62,17.979C73.141,9.609,61.913,4.999,50.003,4.999C37.874,4.999,26.504,9.754,17.983,18.385z    M11.068,50.247c-0.065-10.399,3.922-20.202,11.228-27.6c7.371-7.469,17.213-11.581,27.706-11.581   c10.304,0,20.021,3.988,27.351,11.231c7.401,7.306,11.513,17.059,11.578,27.457c0.065,10.399-3.922,20.202-11.228,27.6   c-7.371,7.466-17.213,11.578-27.7,11.578c-10.31,0-20.021-3.988-27.357-11.231C15.246,70.396,11.134,60.646,11.068,50.247z"/></g><text x="0" y="115" fill="#000000" font-size="5px" font-weight="bold" font-family="'Helvetica Neue', Helvetica, Arial-Unicode, Arial, Sans-serif">Created by Marek Polakovic</text><text x="0" y="120" fill="#000000" font-size="5px" font-weight="bold" font-family="'Helvetica Neue', Helvetica, Arial-Unicode, Arial, Sans-serif">from the Noun Project</text></svg>